<svg xmlns="http://www.w3.org/2000/svg" xmlns:xlink="http://www.w3.org/1999/xlink" contentStyleType="text/css" data-diagram-type="CLASS" height="1297px" preserveAspectRatio="none" style="width:1555px;height:1297px;background:#FFFFFF;" version="1.1" viewBox="0 0 1555 1297" width="1555px" zoomAndPan="magnify"><title>SampleAPI Library Domain Class Diagram</title><defs/><g><text fill="#000000" font-family="sans-serif" font-size="14" font-weight="bold" lengthAdjust="spacing" textLength="280.875" x="630.4265" y="24.5332">SampleAPI Library Domain Class Diagram</text><!--cluster SampleAPI--><g class="cluster" data-entity="SampleAPI" data-source-line="8" data-uid="ent0004" id="cluster_SampleAPI"><path d="M8.5,44.6094 L82.6377,44.6094 A3.75,3.75 0 0 1 85.1377,47.1094 L92.1377,68.2188 L1344.5,68.2188 A2.5,2.5 0 0 1 1347,70.7188 L1347,1288.1094 A2.5,2.5 0 0 1 1344.5,1290.6094 L8.5,1290.6094 A2.5,2.5 0 0 1 6,1288.1094 L6,47.1094 A2.5,2.5 0 0 1 8.5,44.6094" fill="none" style="stroke:#000000;stroke-width:1.5;"/><line style="stroke:#000000;stroke-width:1.5;" x1="6" x2="92.1377" y1="68.2188" y2="68.2188"/><text fill="#000000" font-family="sans-serif" font-size="14" font-weight="bold" lengthAdjust="spacing" textLength="73.1377" x="10" y="61.1426">SampleAPI</text></g><!--cluster Entities--><g class="cluster" data-entity="Entities" data-source-line="7" data-uid="ent0002" id="cluster_Entities"><path d="M32.5,88.6094 L84.0654,88.6094 A3.75,3.75 0 0 1 86.5654,91.1094 L93.5654,112.2188 L1320.5,112.2188 A2.5,2.5 0 0 1 1323,114.7188 L1323,1264.1094 A2.5,2.5 0 0 1 1320.5,1266.6094 L32.5,1266.6094 A2.5,2.5 0 0 1 30,1264.1094 L30,91.1094 A2.5,2.5 0 0 1 32.5,88.6094" fill="none" style="stroke:#000000;stroke-width:1.5;"/><line style="stroke:#000000;stroke-width:1.5;" x1="30" x2="93.5654" y1="112.2188" y2="112.2188"/><text fill="#000000" font-family="sans-serif" font-size="14" font-weight="bold" lengthAdjust="spacing" textLength="50.5654" x="34" y="105.1426">Entities</text></g><!--class LibraryUser--><g class="entity" data-entity="LibraryUser" data-source-line="8" data-uid="ent0003" id="entity_LibraryUser"><rect fill="#F1F1F1" height="145.6563" rx="2.5" ry="2.5" style="stroke:#181818;stroke-width:0.5;" width="168.7822" x="1099.5" y="124.6094"/><ellipse cx="1143.4938" cy="140.6094" fill="#A9DCDF" rx="11" ry="11" style="stroke:#181818;stroke-width:1;"/><path d="M1145.6813,142.375 L1141.5407,142.375 L1141.1188,143.4063 L1141.5407,143.4063 Q1142.15,143.4063 1142.4157,143.6406 Q1142.6813,143.875 1142.6813,144.2656 Q1142.6813,144.6406 1142.4157,144.875 Q1142.15,145.1094 1141.5407,145.1094 L1139.2438,145.1094 Q1138.6344,145.1094 1138.3844,144.875 Q1138.1188,144.6406 1138.1188,144.25 Q1138.1188,143.875 1138.4,143.6406 Q1138.6657,143.3906 1139.2907,143.4063 L1141.9625,136.75 L1140.8532,136.75 Q1140.2438,136.75 1139.9782,136.5156 Q1139.7125,136.2813 1139.7125,135.8906 Q1139.7125,135.5156 1139.9782,135.2813 Q1140.2438,135.0469 1140.8532,135.0469 L1144.525,135.0469 L1147.9157,143.4063 Q1148.5094,143.4063 1148.6969,143.5469 Q1149.0875,143.8125 1149.0875,144.2656 Q1149.0875,144.6406 1148.8219,144.875 Q1148.5719,145.1094 1147.9625,145.1094 L1145.6657,145.1094 Q1145.0563,145.1094 1144.7907,144.875 Q1144.525,144.6406 1144.525,144.25 Q1144.525,143.875 1144.7907,143.6406 Q1145.0563,143.4063 1145.6657,143.4063 L1146.0875,143.4063 L1145.6813,142.375 Z M1144.9625,140.6719 L1143.6032,137.2969 L1142.2282,140.6719 L1144.9625,140.6719 Z " fill="#000000"/><text fill="#000000" font-family="sans-serif" font-size="14" font-style="italic" lengthAdjust="spacing" textLength="72.3516" x="1163.9369" y="146.3379">LibraryUser</text><line style="stroke:#181818;stroke-width:0.5;" x1="1100.5" x2="1267.2822" y1="156.6094" y2="156.6094"/><text fill="#000000" font-family="sans-serif" font-size="14" lengthAdjust="spacing" textLength="53.3135" x="1105.5" y="175.1426">+Guid Id</text><text fill="#000000" font-family="sans-serif" font-size="14" lengthAdjust="spacing" textLength="110.8584" x="1105.5" y="192.752">+string FirstName</text><text fill="#000000" font-family="sans-serif" font-size="14" lengthAdjust="spacing" textLength="110.1064" x="1105.5" y="210.3613">+string LastName</text><text fill="#000000" font-family="sans-serif" font-size="14" lengthAdjust="spacing" textLength="81.3066" x="1105.5" y="227.9707">+string Email</text><text fill="#000000" font-family="sans-serif" font-size="14" lengthAdjust="spacing" textLength="86.7822" x="1105.5" y="245.5801">+string Phone</text><text fill="#000000" font-family="sans-serif" font-size="14" lengthAdjust="spacing" textLength="156.7822" x="1105.5" y="263.1895">+DateTime CreatedAtUtc</text></g><!--class Customer--><g class="entity" data-entity="Customer" data-source-line="17" data-uid="ent0005" id="entity_Customer"><rect fill="#F1F1F1" height="110.4375" rx="2.5" ry="2.5" style="stroke:#181818;stroke-width:0.5;" width="185.1201" x="878.5" y="401.1094"/><ellipse cx="936.4688" cy="417.1094" fill="#ADD1B2" rx="11" ry="11" style="stroke:#181818;stroke-width:1;"/><path d="M939.2344,412.9844 Q939.3906,412.7656 939.5781,412.6563 Q939.7656,412.5469 939.9844,412.5469 Q940.3594,412.5469 940.5938,412.8125 Q940.8281,413.0625 940.8281,413.6719 L940.8281,415.125 Q940.8281,415.7344 940.5938,416 Q940.3594,416.2656 939.9844,416.2656 Q939.6406,416.2656 939.4375,416.0625 Q939.2344,415.875 939.125,415.3594 Q939.0781,415 938.8906,414.8125 Q938.5625,414.4375 937.9531,414.2188 Q937.3438,414 936.7188,414 Q935.9531,414 935.3125,414.3281 Q934.6875,414.6563 934.1875,415.4063 Q933.7031,416.1563 933.7031,417.1875 L933.7031,418.2813 Q933.7031,419.5156 934.5938,420.3438 Q935.4844,421.1563 937.0781,421.1563 Q938.0156,421.1563 938.6719,420.9063 Q939.0625,420.75 939.4844,420.3125 Q939.75,420.0469 939.8906,419.9688 Q940.0469,419.8906 940.25,419.8906 Q940.5781,419.8906 940.8281,420.1563 Q941.0938,420.4063 941.0938,420.75 Q941.0938,421.0938 940.75,421.5 Q940.25,422.0781 939.4531,422.4063 Q938.375,422.8594 937.0781,422.8594 Q935.5625,422.8594 934.3594,422.2344 Q933.375,421.7344 932.6875,420.6719 Q932,419.5938 932,418.3125 L932,417.1563 Q932,415.8281 932.6094,414.6875 Q933.2344,413.5313 934.3281,412.9219 Q935.4219,412.2969 936.6563,412.2969 Q937.3906,412.2969 938.0313,412.4688 Q938.6875,412.625 939.2344,412.9844 Z " fill="#000000"/><text fill="#000000" font-family="sans-serif" font-size="14" lengthAdjust="spacing" textLength="60.6826" x="956.9688" y="422.8379">Customer</text><line style="stroke:#181818;stroke-width:0.5;" x1="879.5" x2="1062.6201" y1="433.1094" y2="433.1094"/><text fill="#000000" font-family="sans-serif" font-size="14" lengthAdjust="spacing" textLength="173.1201" x="884.5" y="451.6426">+string MembershipNumber</text><text fill="#000000" font-family="sans-serif" font-size="14" lengthAdjust="spacing" textLength="152.127" x="884.5" y="469.252">+CustomerStatus Status</text><text fill="#000000" font-family="sans-serif" font-size="14" lengthAdjust="spacing" textLength="130.3545" x="884.5" y="486.8613">+DateOnly JoinedOn</text><text fill="#000000" font-family="sans-serif" font-size="14" lengthAdjust="spacing" textLength="114.7822" x="884.5" y="504.4707">+Address Address</text></g><!--class Staff--><g class="entity" data-entity="Staff" data-source-line="24" data-uid="ent0006" id="entity_Staff"><rect fill="#F1F1F1" height="75.2188" rx="2.5" ry="2.5" style="stroke:#181818;stroke-width:0.5;" width="170.3477" x="1099" y="418.6094"/><ellipse cx="1165.5273" cy="434.6094" fill="#ADD1B2" rx="11" ry="11" style="stroke:#181818;stroke-width:1;"/><path d="M1168.293,430.4844 Q1168.4492,430.2656 1168.6367,430.1563 Q1168.8242,430.0469 1169.043,430.0469 Q1169.418,430.0469 1169.6523,430.3125 Q1169.8867,430.5625 1169.8867,431.1719 L1169.8867,432.625 Q1169.8867,433.2344 1169.6523,433.5 Q1169.418,433.7656 1169.043,433.7656 Q1168.6992,433.7656 1168.4961,433.5625 Q1168.293,433.375 1168.1836,432.8594 Q1168.1367,432.5 1167.9492,432.3125 Q1167.6211,431.9375 1167.0117,431.7188 Q1166.4023,431.5 1165.7773,431.5 Q1165.0117,431.5 1164.3711,431.8281 Q1163.7461,432.1563 1163.2461,432.9063 Q1162.7617,433.6563 1162.7617,434.6875 L1162.7617,435.7813 Q1162.7617,437.0156 1163.6523,437.8438 Q1164.543,438.6563 1166.1367,438.6563 Q1167.0742,438.6563 1167.7305,438.4063 Q1168.1211,438.25 1168.543,437.8125 Q1168.8086,437.5469 1168.9492,437.4688 Q1169.1055,437.3906 1169.3086,437.3906 Q1169.6367,437.3906 1169.8867,437.6563 Q1170.1523,437.9063 1170.1523,438.25 Q1170.1523,438.5938 1169.8086,439 Q1169.3086,439.5781 1168.5117,439.9063 Q1167.4336,440.3594 1166.1367,440.3594 Q1164.6211,440.3594 1163.418,439.7344 Q1162.4336,439.2344 1161.7461,438.1719 Q1161.0586,437.0938 1161.0586,435.8125 L1161.0586,434.6563 Q1161.0586,433.3281 1161.668,432.1875 Q1162.293,431.0313 1163.3867,430.4219 Q1164.4805,429.7969 1165.7148,429.7969 Q1166.4492,429.7969 1167.0898,429.9688 Q1167.7461,430.125 1168.293,430.4844 Z " fill="#000000"/><text fill="#000000" font-family="sans-serif" font-size="14" lengthAdjust="spacing" textLength="28.793" x="1186.0273" y="440.3379">Staff</text><line style="stroke:#181818;stroke-width:0.5;" x1="1100" x2="1268.3477" y1="450.6094" y2="450.6094"/><text fill="#000000" font-family="sans-serif" font-size="14" lengthAdjust="spacing" textLength="158.3477" x="1105" y="469.1426">+string EmployeeNumber</text><text fill="#000000" font-family="sans-serif" font-size="14" lengthAdjust="spacing" textLength="122.5547" x="1105" y="486.752">+DateOnly HiredOn</text></g><!--class Address--><g class="entity" data-entity="Address" data-source-line="29" data-uid="ent0007" id="entity_Address"><rect fill="#F1F1F1" height="138.75" rx="2.5" ry="2.5" style="stroke:#181818;stroke-width:0.5;" width="144.0859" x="754" y="671.1094"/><ellipse cx="769" cy="692.4609" fill="#ADD1B2" rx="11" ry="11" style="stroke:#181818;stroke-width:1;"/><path d="M771.7656,688.3359 Q771.9219,688.1172 772.1094,688.0078 Q772.2969,687.8984 772.5156,687.8984 Q772.8906,687.8984 773.125,688.1641 Q773.3594,688.4141 773.3594,689.0234 L773.3594,690.4766 Q773.3594,691.0859 773.125,691.3516 Q772.8906,691.6172 772.5156,691.6172 Q772.1719,691.6172 771.9688,691.4141 Q771.7656,691.2266 771.6563,690.7109 Q771.6094,690.3516 771.4219,690.1641 Q771.0938,689.7891 770.4844,689.5703 Q769.875,689.3516 769.25,689.3516 Q768.4844,689.3516 767.8438,689.6797 Q767.2188,690.0078 766.7188,690.7578 Q766.2344,691.5078 766.2344,692.5391 L766.2344,693.6328 Q766.2344,694.8672 767.125,695.6953 Q768.0156,696.5078 769.6094,696.5078 Q770.5469,696.5078 771.2031,696.2578 Q771.5938,696.1016 772.0156,695.6641 Q772.2813,695.3984 772.4219,695.3203 Q772.5781,695.2422 772.7813,695.2422 Q773.1094,695.2422 773.3594,695.5078 Q773.625,695.7578 773.625,696.1016 Q773.625,696.4453 773.2813,696.8516 Q772.7813,697.4297 771.9844,697.7578 Q770.9063,698.2109 769.6094,698.2109 Q768.0938,698.2109 766.8906,697.5859 Q765.9063,697.0859 765.2188,696.0234 Q764.5313,694.9453 764.5313,693.6641 L764.5313,692.5078 Q764.5313,691.1797 765.1406,690.0391 Q765.7656,688.8828 766.8594,688.2734 Q767.9531,687.6484 769.1875,687.6484 Q769.9219,687.6484 770.5625,687.8203 Q771.2188,687.9766 771.7656,688.3359 Z " fill="#000000"/><text fill="#000000" font-family="sans-serif" font-size="12" font-style="italic" lengthAdjust="spacing" textLength="116.0859" x="781" y="688.5664">&#171;owned value object&#187;</text><text fill="#000000" font-family="sans-serif" font-size="14" lengthAdjust="spacing" textLength="51.3584" x="813.3638" y="705.7363">Address</text><line style="stroke:#181818;stroke-width:0.5;" x1="755" x2="897.0859" y1="713.8125" y2="713.8125"/><text fill="#000000" font-family="sans-serif" font-size="14" lengthAdjust="spacing" textLength="83.6514" x="760" y="732.3457">+string Street</text><text fill="#000000" font-family="sans-serif" font-size="14" lengthAdjust="spacing" textLength="70.4102" x="760" y="749.9551">+string City</text><text fill="#000000" font-family="sans-serif" font-size="14" lengthAdjust="spacing" textLength="78.9893" x="760" y="767.5645">+string State</text><text fill="#000000" font-family="sans-serif" font-size="14" lengthAdjust="spacing" textLength="118.6787" x="760" y="785.1738">+string PostalCode</text><text fill="#000000" font-family="sans-serif" font-size="14" lengthAdjust="spacing" textLength="95.3203" x="760" y="802.7832">+string Country</text></g><!--class Publisher--><g class="entity" data-entity="Publisher" data-source-line="37" data-uid="ent0008" id="entity_Publisher"><rect fill="#F1F1F1" height="92.8281" rx="2.5" ry="2.5" style="stroke:#181818;stroke-width:0.5;" width="116.6582" x="435.5" y="151.1094"/><ellipse cx="462.3318" cy="167.1094" fill="#ADD1B2" rx="11" ry="11" style="stroke:#181818;stroke-width:1;"/><path d="M465.0975,162.9844 Q465.2537,162.7656 465.4412,162.6563 Q465.6287,162.5469 465.8475,162.5469 Q466.2225,162.5469 466.4568,162.8125 Q466.6912,163.0625 466.6912,163.6719 L466.6912,165.125 Q466.6912,165.7344 466.4568,166 Q466.2225,166.2656 465.8475,166.2656 Q465.5037,166.2656 465.3006,166.0625 Q465.0975,165.875 464.9881,165.3594 Q464.9412,165 464.7537,164.8125 Q464.4256,164.4375 463.8162,164.2188 Q463.2068,164 462.5818,164 Q461.8162,164 461.1756,164.3281 Q460.5506,164.6563 460.0506,165.4063 Q459.5662,166.1563 459.5662,167.1875 L459.5662,168.2813 Q459.5662,169.5156 460.4568,170.3438 Q461.3475,171.1563 462.9412,171.1563 Q463.8787,171.1563 464.535,170.9063 Q464.9256,170.75 465.3475,170.3125 Q465.6131,170.0469 465.7537,169.9688 Q465.91,169.8906 466.1131,169.8906 Q466.4412,169.8906 466.6912,170.1563 Q466.9568,170.4063 466.9568,170.75 Q466.9568,171.0938 466.6131,171.5 Q466.1131,172.0781 465.3162,172.4063 Q464.2381,172.8594 462.9412,172.8594 Q461.4256,172.8594 460.2225,172.2344 Q459.2381,171.7344 458.5506,170.6719 Q457.8631,169.5938 457.8631,168.3125 L457.8631,167.1563 Q457.8631,165.8281 458.4725,164.6875 Q459.0975,163.5313 460.1912,162.9219 Q461.285,162.2969 462.5193,162.2969 Q463.2537,162.2969 463.8943,162.4688 Q464.5506,162.625 465.0975,162.9844 Z " fill="#000000"/><text fill="#000000" font-family="sans-serif" font-size="14" lengthAdjust="spacing" textLength="58.3652" x="478.9611" y="172.8379">Publisher</text><line style="stroke:#181818;stroke-width:0.5;" x1="436.5" x2="551.1582" y1="183.1094" y2="183.1094"/><text fill="#000000" font-family="sans-serif" font-size="14" lengthAdjust="spacing" textLength="53.3135" x="441.5" y="201.6426">+Guid Id</text><text fill="#000000" font-family="sans-serif" font-size="14" lengthAdjust="spacing" textLength="83.6445" x="441.5" y="219.252">+string Name</text><text fill="#000000" font-family="sans-serif" font-size="14" lengthAdjust="spacing" textLength="104.6582" x="441.5" y="236.8613">+string? Website</text></g><!--class Author--><g class="entity" data-entity="Author" data-source-line="43" data-uid="ent0009" id="entity_Author"><rect fill="#F1F1F1" height="128.0469" rx="2.5" ry="2.5" style="stroke:#181818;stroke-width:0.5;" width="148.5684" x="217.5" y="392.1094"/><ellipse cx="266.9102" cy="408.1094" fill="#ADD1B2" rx="11" ry="11" style="stroke:#181818;stroke-width:1;"/><path d="M269.6758,403.9844 Q269.832,403.7656 270.0195,403.6563 Q270.207,403.5469 270.4258,403.5469 Q270.8008,403.5469 271.0352,403.8125 Q271.2695,404.0625 271.2695,404.6719 L271.2695,406.125 Q271.2695,406.7344 271.0352,407 Q270.8008,407.2656 270.4258,407.2656 Q270.082,407.2656 269.8789,407.0625 Q269.6758,406.875 269.5664,406.3594 Q269.5195,406 269.332,405.8125 Q269.0039,405.4375 268.3945,405.2188 Q267.7852,405 267.1602,405 Q266.3945,405 265.7539,405.3281 Q265.1289,405.6563 264.6289,406.4063 Q264.1445,407.1563 264.1445,408.1875 L264.1445,409.2813 Q264.1445,410.5156 265.0352,411.3438 Q265.9258,412.1563 267.5195,412.1563 Q268.457,412.1563 269.1133,411.9063 Q269.5039,411.75 269.9258,411.3125 Q270.1914,411.0469 270.332,410.9688 Q270.4883,410.8906 270.6914,410.8906 Q271.0195,410.8906 271.2695,411.1563 Q271.5352,411.4063 271.5352,411.75 Q271.5352,412.0938 271.1914,412.5 Q270.6914,413.0781 269.8945,413.4063 Q268.8164,413.8594 267.5195,413.8594 Q266.0039,413.8594 264.8008,413.2344 Q263.8164,412.7344 263.1289,411.6719 Q262.4414,410.5938 262.4414,409.3125 L262.4414,408.1563 Q262.4414,406.8281 263.0508,405.6875 Q263.6758,404.5313 264.7695,403.9219 Q265.8633,403.2969 267.0977,403.2969 Q267.832,403.2969 268.4727,403.4688 Q269.1289,403.625 269.6758,403.9844 Z " fill="#000000"/><text fill="#000000" font-family="sans-serif" font-size="14" lengthAdjust="spacing" textLength="41.248" x="287.4102" y="413.8379">Author</text><line style="stroke:#181818;stroke-width:0.5;" x1="218.5" x2="365.0684" y1="424.1094" y2="424.1094"/><text fill="#000000" font-family="sans-serif" font-size="14" lengthAdjust="spacing" textLength="53.3135" x="223.5" y="442.6426">+Guid Id</text><text fill="#000000" font-family="sans-serif" font-size="14" lengthAdjust="spacing" textLength="110.8584" x="223.5" y="460.252">+string FirstName</text><text fill="#000000" font-family="sans-serif" font-size="14" lengthAdjust="spacing" textLength="110.1064" x="223.5" y="477.8613">+string LastName</text><text fill="#000000" font-family="sans-serif" font-size="14" lengthAdjust="spacing" textLength="136.5684" x="223.5" y="495.4707">+DateOnly? BirthDate</text><text fill="#000000" font-family="sans-serif" font-size="14" lengthAdjust="spacing" textLength="117.127" x="223.5" y="513.0801">+string? Biography</text></g><!--class Category--><g class="entity" data-entity="Category" data-source-line="51" data-uid="ent0010" id="entity_Category"><rect fill="#F1F1F1" height="92.8281" rx="2.5" ry="2.5" style="stroke:#181818;stroke-width:0.5;" width="136.1133" x="46" y="409.6094"/><ellipse cx="82.288" cy="425.6094" fill="#ADD1B2" rx="11" ry="11" style="stroke:#181818;stroke-width:1;"/><path d="M85.0536,421.4844 Q85.2099,421.2656 85.3974,421.1563 Q85.5849,421.0469 85.8036,421.0469 Q86.1786,421.0469 86.413,421.3125 Q86.6474,421.5625 86.6474,422.1719 L86.6474,423.625 Q86.6474,424.2344 86.413,424.5 Q86.1786,424.7656 85.8036,424.7656 Q85.4599,424.7656 85.2567,424.5625 Q85.0536,424.375 84.9442,423.8594 Q84.8974,423.5 84.7099,423.3125 Q84.3817,422.9375 83.7724,422.7188 Q83.163,422.5 82.538,422.5 Q81.7724,422.5 81.1317,422.8281 Q80.5067,423.1563 80.0067,423.9063 Q79.5224,424.6563 79.5224,425.6875 L79.5224,426.7813 Q79.5224,428.0156 80.413,428.8438 Q81.3036,429.6563 82.8974,429.6563 Q83.8349,429.6563 84.4911,429.4063 Q84.8817,429.25 85.3036,428.8125 Q85.5692,428.5469 85.7099,428.4688 Q85.8661,428.3906 86.0692,428.3906 Q86.3974,428.3906 86.6474,428.6563 Q86.913,428.9063 86.913,429.25 Q86.913,429.5938 86.5692,430 Q86.0692,430.5781 85.2724,430.9063 Q84.1942,431.3594 82.8974,431.3594 Q81.3817,431.3594 80.1786,430.7344 Q79.1942,430.2344 78.5067,429.1719 Q77.8192,428.0938 77.8192,426.8125 L77.8192,425.6563 Q77.8192,424.3281 78.4286,423.1875 Q79.0536,422.0313 80.1474,421.4219 Q81.2411,420.7969 82.4755,420.7969 Q83.2099,420.7969 83.8505,420.9688 Q84.5067,421.125 85.0536,421.4844 Z " fill="#000000"/><text fill="#000000" font-family="sans-serif" font-size="14" lengthAdjust="spacing" textLength="56.8066" x="101.0187" y="431.3379">Category</text><line style="stroke:#181818;stroke-width:0.5;" x1="47" x2="181.1133" y1="441.6094" y2="441.6094"/><text fill="#000000" font-family="sans-serif" font-size="14" lengthAdjust="spacing" textLength="53.3135" x="52" y="460.1426">+Guid Id</text><text fill="#000000" font-family="sans-serif" font-size="14" lengthAdjust="spacing" textLength="83.6445" x="52" y="477.752">+string Name</text><text fill="#000000" font-family="sans-serif" font-size="14" lengthAdjust="spacing" textLength="124.1133" x="52" y="495.3613">+string? Description</text></g><!--class Book--><g class="entity" data-entity="Book" data-source-line="57" data-uid="ent0011" id="entity_Book"><rect fill="#F1F1F1" height="251.3125" rx="2.5" ry="2.5" style="stroke:#181818;stroke-width:0.5;" width="183.582" x="402" y="330.6094"/><ellipse cx="473.5859" cy="346.6094" fill="#ADD1B2" rx="11" ry="11" style="stroke:#181818;stroke-width:1;"/><path d="M476.3516,342.4844 Q476.5078,342.2656 476.6953,342.1563 Q476.8828,342.0469 477.1016,342.0469 Q477.4766,342.0469 477.7109,342.3125 Q477.9453,342.5625 477.9453,343.1719 L477.9453,344.625 Q477.9453,345.2344 477.7109,345.5 Q477.4766,345.7656 477.1016,345.7656 Q476.7578,345.7656 476.5547,345.5625 Q476.3516,345.375 476.2422,344.8594 Q476.1953,344.5 476.0078,344.3125 Q475.6797,343.9375 475.0703,343.7188 Q474.4609,343.5 473.8359,343.5 Q473.0703,343.5 472.4297,343.8281 Q471.8047,344.1563 471.3047,344.9063 Q470.8203,345.6563 470.8203,346.6875 L470.8203,347.7813 Q470.8203,349.0156 471.7109,349.8438 Q472.6016,350.6563 474.1953,350.6563 Q475.1328,350.6563 475.7891,350.4063 Q476.1797,350.25 476.6016,349.8125 Q476.8672,349.5469 477.0078,349.4688 Q477.1641,349.3906 477.3672,349.3906 Q477.6953,349.3906 477.9453,349.6563 Q478.2109,349.9063 478.2109,350.25 Q478.2109,350.5938 477.8672,351 Q477.3672,351.5781 476.5703,351.9063 Q475.4922,352.3594 474.1953,352.3594 Q472.6797,352.3594 471.4766,351.7344 Q470.4922,351.2344 469.8047,350.1719 Q469.1172,349.0938 469.1172,347.8125 L469.1172,346.6563 Q469.1172,345.3281 469.7266,344.1875 Q470.3516,343.0313 471.4453,342.4219 Q472.5391,341.7969 473.7734,341.7969 Q474.5078,341.7969 475.1484,341.9688 Q475.8047,342.125 476.3516,342.4844 Z " fill="#000000"/><text fill="#000000" font-family="sans-serif" font-size="14" lengthAdjust="spacing" textLength="31.9102" x="494.0859" y="352.3379">Book</text><line style="stroke:#181818;stroke-width:0.5;" x1="403" x2="584.582" y1="362.6094" y2="362.6094"/><text fill="#000000" font-family="sans-serif" font-size="14" lengthAdjust="spacing" textLength="53.3135" x="408" y="381.1426">+Guid Id</text><text fill="#000000" font-family="sans-serif" font-size="14" lengthAdjust="spacing" textLength="72.7617" x="408" y="398.752">+string Isbn</text><text fill="#000000" font-family="sans-serif" font-size="14" lengthAdjust="spacing" textLength="72.748" x="408" y="416.3613">+string Title</text><text fill="#000000" font-family="sans-serif" font-size="14" lengthAdjust="spacing" textLength="124.1133" x="408" y="433.9707">+string? Description</text><text fill="#000000" font-family="sans-serif" font-size="14" lengthAdjust="spacing" textLength="124.9131" x="408" y="451.5801">+int PublicationYear</text><text fill="#000000" font-family="sans-serif" font-size="14" lengthAdjust="spacing" textLength="69.6582" x="408" y="469.1895">+int Edition</text><text fill="#000000" font-family="sans-serif" font-size="14" lengthAdjust="spacing" textLength="66.5479" x="408" y="486.7988">+int Pages</text><text fill="#000000" font-family="sans-serif" font-size="14" lengthAdjust="spacing" textLength="171.582" x="408" y="504.4082">+decimal ReplacementCost</text><text fill="#000000" font-family="sans-serif" font-size="14" lengthAdjust="spacing" textLength="97.6787" x="408" y="522.0176">+bool IsDeleted</text><text fill="#000000" font-family="sans-serif" font-size="14" lengthAdjust="spacing" textLength="156.7822" x="408" y="539.627">+DateTime CreatedAtUtc</text><text fill="#000000" font-family="sans-serif" font-size="14" lengthAdjust="spacing" textLength="167.6924" x="408" y="557.2363">+DateTime? UpdatedAtUtc</text><text fill="#000000" font-family="sans-serif" font-size="14" lengthAdjust="spacing" textLength="111.6787" x="408" y="574.8457">+Guid PublisherId</text></g><!--class BookAuthor--><g class="entity" data-entity="BookAuthor" data-source-line="72" data-uid="ent0012" id="entity_BookAuthor"><rect fill="#F1F1F1" height="103.5313" rx="2.5" ry="2.5" style="stroke:#181818;stroke-width:0.5;" width="106.5615" x="203.5" y="688.6094"/><ellipse cx="219.1315" cy="709.9609" fill="#ADD1B2" rx="11" ry="11" style="stroke:#181818;stroke-width:1;"/><path d="M221.8971,705.8359 Q222.0534,705.6172 222.2409,705.5078 Q222.4284,705.3984 222.6471,705.3984 Q223.0221,705.3984 223.2565,705.6641 Q223.4909,705.9141 223.4909,706.5234 L223.4909,707.9766 Q223.4909,708.5859 223.2565,708.8516 Q223.0221,709.1172 222.6471,709.1172 Q222.3034,709.1172 222.1002,708.9141 Q221.8971,708.7266 221.7877,708.2109 Q221.7409,707.8516 221.5534,707.6641 Q221.2252,707.2891 220.6159,707.0703 Q220.0065,706.8516 219.3815,706.8516 Q218.6159,706.8516 217.9752,707.1797 Q217.3502,707.5078 216.8502,708.2578 Q216.3659,709.0078 216.3659,710.0391 L216.3659,711.1328 Q216.3659,712.3672 217.2565,713.1953 Q218.1471,714.0078 219.7409,714.0078 Q220.6784,714.0078 221.3346,713.7578 Q221.7252,713.6016 222.1471,713.1641 Q222.4127,712.8984 222.5534,712.8203 Q222.7096,712.7422 222.9127,712.7422 Q223.2409,712.7422 223.4909,713.0078 Q223.7565,713.2578 223.7565,713.6016 Q223.7565,713.9453 223.4127,714.3516 Q222.9127,714.9297 222.1159,715.2578 Q221.0377,715.7109 219.7409,715.7109 Q218.2252,715.7109 217.0221,715.0859 Q216.0377,714.5859 215.3502,713.5234 Q214.6627,712.4453 214.6627,711.1641 L214.6627,710.0078 Q214.6627,708.6797 215.2721,707.5391 Q215.8971,706.3828 216.9909,705.7734 Q218.0846,705.1484 219.319,705.1484 Q220.0534,705.1484 220.694,705.3203 Q221.3502,705.4766 221.8971,705.8359 Z " fill="#000000"/><text fill="#000000" font-family="sans-serif" font-size="12" font-style="italic" lengthAdjust="spacing" textLength="64.043" x="237.8294" y="706.0664">&#171;join entity&#187;</text><text fill="#000000" font-family="sans-serif" font-size="14" lengthAdjust="spacing" textLength="73.1582" x="233.2718" y="723.2363">BookAuthor</text><line style="stroke:#181818;stroke-width:0.5;" x1="204.5" x2="309.0615" y1="731.3125" y2="731.3125"/><text fill="#000000" font-family="sans-serif" font-size="14" lengthAdjust="spacing" textLength="85.2236" x="209.5" y="749.8457">+Guid BookId</text><text fill="#000000" font-family="sans-serif" font-size="14" lengthAdjust="spacing" textLength="94.5615" x="209.5" y="767.4551">+Guid AuthorId</text><text fill="#000000" font-family="sans-serif" font-size="14" lengthAdjust="spacing" textLength="88.3135" x="209.5" y="785.0645">+int SortOrder</text></g><!--class BookCategory--><g class="entity" data-entity="BookCategory" data-source-line="78" data-uid="ent0013" id="entity_BookCategory"><rect fill="#F1F1F1" height="85.9219" rx="2.5" ry="2.5" style="stroke:#181818;stroke-width:0.5;" width="122.1201" x="46" y="697.6094"/><ellipse cx="61.6315" cy="718.9609" fill="#ADD1B2" rx="11" ry="11" style="stroke:#181818;stroke-width:1;"/><path d="M64.3971,714.8359 Q64.5534,714.6172 64.7409,714.5078 Q64.9284,714.3984 65.1471,714.3984 Q65.5221,714.3984 65.7565,714.6641 Q65.9909,714.9141 65.9909,715.5234 L65.9909,716.9766 Q65.9909,717.5859 65.7565,717.8516 Q65.5221,718.1172 65.1471,718.1172 Q64.8034,718.1172 64.6002,717.9141 Q64.3971,717.7266 64.2877,717.2109 Q64.2409,716.8516 64.0534,716.6641 Q63.7252,716.2891 63.1159,716.0703 Q62.5065,715.8516 61.8815,715.8516 Q61.1159,715.8516 60.4752,716.1797 Q59.8502,716.5078 59.3502,717.2578 Q58.8659,718.0078 58.8659,719.0391 L58.8659,720.1328 Q58.8659,721.3672 59.7565,722.1953 Q60.6471,723.0078 62.2409,723.0078 Q63.1784,723.0078 63.8346,722.7578 Q64.2252,722.6016 64.6471,722.1641 Q64.9127,721.8984 65.0534,721.8203 Q65.2096,721.7422 65.4127,721.7422 Q65.7409,721.7422 65.9909,722.0078 Q66.2565,722.2578 66.2565,722.6016 Q66.2565,722.9453 65.9127,723.3516 Q65.4127,723.9297 64.6159,724.2578 Q63.5377,724.7109 62.2409,724.7109 Q60.7252,724.7109 59.5221,724.0859 Q58.5377,723.5859 57.8502,722.5234 Q57.1627,721.4453 57.1627,720.1641 L57.1627,719.0078 Q57.1627,717.6797 57.7721,716.5391 Q58.3971,715.3828 59.4909,714.7734 Q60.5846,714.1484 61.819,714.1484 Q62.5534,714.1484 63.194,714.3203 Q63.8502,714.4766 64.3971,714.8359 Z " fill="#000000"/><text fill="#000000" font-family="sans-serif" font-size="12" font-style="italic" lengthAdjust="spacing" textLength="64.043" x="88.1087" y="715.0664">&#171;join entity&#187;</text><text fill="#000000" font-family="sans-serif" font-size="14" lengthAdjust="spacing" textLength="88.7168" x="75.7718" y="732.2363">BookCategory</text><line style="stroke:#181818;stroke-width:0.5;" x1="47" x2="167.1201" y1="740.3125" y2="740.3125"/><text fill="#000000" font-family="sans-serif" font-size="14" lengthAdjust="spacing" textLength="85.2236" x="52" y="758.8457">+Guid BookId</text><text fill="#000000" font-family="sans-serif" font-size="14" lengthAdjust="spacing" textLength="110.1201" x="52" y="776.4551">+Guid CategoryId</text></g><!--class LibraryBranch--><g class="entity" data-entity="LibraryBranch" data-source-line="83" data-uid="ent0014" id="entity_LibraryBranch"><rect fill="#F1F1F1" height="110.4375" rx="2.5" ry="2.5" style="stroke:#181818;stroke-width:0.5;" width="126.7822" x="716.5" y="401.1094"/><ellipse cx="734.9339" cy="417.1094" fill="#ADD1B2" rx="11" ry="11" style="stroke:#181818;stroke-width:1;"/><path d="M737.6995,412.9844 Q737.8558,412.7656 738.0433,412.6563 Q738.2308,412.5469 738.4495,412.5469 Q738.8245,412.5469 739.0589,412.8125 Q739.2933,413.0625 739.2933,413.6719 L739.2933,415.125 Q739.2933,415.7344 739.0589,416 Q738.8245,416.2656 738.4495,416.2656 Q738.1058,416.2656 737.9026,416.0625 Q737.6995,415.875 737.5901,415.3594 Q737.5433,415 737.3558,414.8125 Q737.0276,414.4375 736.4183,414.2188 Q735.8089,414 735.1839,414 Q734.4183,414 733.7776,414.3281 Q733.1526,414.6563 732.6526,415.4063 Q732.1683,416.1563 732.1683,417.1875 L732.1683,418.2813 Q732.1683,419.5156 733.0589,420.3438 Q733.9495,421.1563 735.5433,421.1563 Q736.4808,421.1563 737.137,420.9063 Q737.5276,420.75 737.9495,420.3125 Q738.2151,420.0469 738.3558,419.9688 Q738.512,419.8906 738.7151,419.8906 Q739.0433,419.8906 739.2933,420.1563 Q739.5589,420.4063 739.5589,420.75 Q739.5589,421.0938 739.2151,421.5 Q738.7151,422.0781 737.9183,422.4063 Q736.8401,422.8594 735.5433,422.8594 Q734.0276,422.8594 732.8245,422.2344 Q731.8401,421.7344 731.1526,420.6719 Q730.4651,419.5938 730.4651,418.3125 L730.4651,417.1563 Q730.4651,415.8281 731.0745,414.6875 Q731.6995,413.5313 732.7933,412.9219 Q733.887,412.2969 735.1214,412.2969 Q735.8558,412.2969 736.4964,412.4688 Q737.1526,412.625 737.6995,412.9844 Z " fill="#000000"/><text fill="#000000" font-family="sans-serif" font-size="14" lengthAdjust="spacing" textLength="87.1514" x="749.697" y="422.8379">LibraryBranch</text><line style="stroke:#181818;stroke-width:0.5;" x1="717.5" x2="842.2822" y1="433.1094" y2="433.1094"/><text fill="#000000" font-family="sans-serif" font-size="14" lengthAdjust="spacing" textLength="53.3135" x="722.5" y="451.6426">+Guid Id</text><text fill="#000000" font-family="sans-serif" font-size="14" lengthAdjust="spacing" textLength="83.6445" x="722.5" y="469.252">+string Name</text><text fill="#000000" font-family="sans-serif" font-size="14" lengthAdjust="spacing" textLength="86.7822" x="722.5" y="486.8613">+string Phone</text><text fill="#000000" font-family="sans-serif" font-size="14" lengthAdjust="spacing" textLength="114.7822" x="722.5" y="504.4707">+Address Address</text></g><!--class BookCopy--><g class="entity" data-entity="BookCopy" data-source-line="90" data-uid="ent0015" id="entity_BookCopy"><rect fill="#F1F1F1" height="198.4844" rx="2.5" ry="2.5" style="stroke:#181818;stroke-width:0.5;" width="168.0371" x="346" y="641.6094"/><ellipse cx="393.4722" cy="657.6094" fill="#ADD1B2" rx="11" ry="11" style="stroke:#181818;stroke-width:1;"/><path d="M396.2378,653.4844 Q396.394,653.2656 396.5815,653.1563 Q396.769,653.0469 396.9878,653.0469 Q397.3628,653.0469 397.5972,653.3125 Q397.8315,653.5625 397.8315,654.1719 L397.8315,655.625 Q397.8315,656.2344 397.5972,656.5 Q397.3628,656.7656 396.9878,656.7656 Q396.644,656.7656 396.4409,656.5625 Q396.2378,656.375 396.1284,655.8594 Q396.0815,655.5 395.894,655.3125 Q395.5659,654.9375 394.9565,654.7188 Q394.3472,654.5 393.7222,654.5 Q392.9565,654.5 392.3159,654.8281 Q391.6909,655.1563 391.1909,655.9063 Q390.7065,656.6563 390.7065,657.6875 L390.7065,658.7813 Q390.7065,660.0156 391.5972,660.8438 Q392.4878,661.6563 394.0815,661.6563 Q395.019,661.6563 395.6753,661.4063 Q396.0659,661.25 396.4878,660.8125 Q396.7534,660.5469 396.894,660.4688 Q397.0503,660.3906 397.2534,660.3906 Q397.5815,660.3906 397.8315,660.6563 Q398.0972,660.9063 398.0972,661.25 Q398.0972,661.5938 397.7534,662 Q397.2534,662.5781 396.4565,662.9063 Q395.3784,663.3594 394.0815,663.3594 Q392.5659,663.3594 391.3628,662.7344 Q390.3784,662.2344 389.6909,661.1719 Q389.0034,660.0938 389.0034,658.8125 L389.0034,657.6563 Q389.0034,656.3281 389.6128,655.1875 Q390.2378,654.0313 391.3315,653.4219 Q392.4253,652.7969 393.6597,652.7969 Q394.394,652.7969 395.0347,652.9688 Q395.6909,653.125 396.2378,653.4844 Z " fill="#000000"/><text fill="#000000" font-family="sans-serif" font-size="14" lengthAdjust="spacing" textLength="64.5928" x="413.9722" y="663.3379">BookCopy</text><line style="stroke:#181818;stroke-width:0.5;" x1="347" x2="513.0371" y1="673.6094" y2="673.6094"/><text fill="#000000" font-family="sans-serif" font-size="14" lengthAdjust="spacing" textLength="53.3135" x="352" y="692.1426">+Guid Id</text><text fill="#000000" font-family="sans-serif" font-size="14" lengthAdjust="spacing" textLength="98.4443" x="352" y="709.752">+string Barcode</text><text fill="#000000" font-family="sans-serif" font-size="14" lengthAdjust="spacing" textLength="156.0371" x="352" y="727.3613">+BookCopyStatus Status</text><text fill="#000000" font-family="sans-serif" font-size="14" lengthAdjust="spacing" textLength="144.3545" x="352" y="744.9707">+DateOnly AcquiredOn</text><text fill="#000000" font-family="sans-serif" font-size="14" lengthAdjust="spacing" textLength="151.3477" x="352" y="762.5801">+decimal PurchasePrice</text><text fill="#000000" font-family="sans-serif" font-size="14" lengthAdjust="spacing" textLength="131.1406" x="352" y="780.1895">+string ShelfLocation</text><text fill="#000000" font-family="sans-serif" font-size="14" lengthAdjust="spacing" textLength="85.2236" x="352" y="797.7988">+Guid BookId</text><text fill="#000000" font-family="sans-serif" font-size="14" lengthAdjust="spacing" textLength="97.6719" x="352" y="815.4082">+Guid BranchId</text><text fill="#000000" font-family="sans-serif" font-size="14" lengthAdjust="spacing" textLength="121.7822" x="352" y="833.0176">+byte[] RowVersion</text></g><!--class Rental--><g class="entity" data-entity="Rental" data-source-line="102" data-uid="ent0016" id="entity_Rental"><rect fill="#F1F1F1" height="198.4844" rx="2.5" ry="2.5" style="stroke:#181818;stroke-width:0.5;" width="170.3408" x="970" y="641.6094"/><ellipse cx="1030.686" cy="657.6094" fill="#ADD1B2" rx="11" ry="11" style="stroke:#181818;stroke-width:1;"/><path d="M1033.4517,653.4844 Q1033.6079,653.2656 1033.7954,653.1563 Q1033.9829,653.0469 1034.2017,653.0469 Q1034.5767,653.0469 1034.811,653.3125 Q1035.0454,653.5625 1035.0454,654.1719 L1035.0454,655.625 Q1035.0454,656.2344 1034.811,656.5 Q1034.5767,656.7656 1034.2017,656.7656 Q1033.8579,656.7656 1033.6548,656.5625 Q1033.4517,656.375 1033.3423,655.8594 Q1033.2954,655.5 1033.1079,655.3125 Q1032.7798,654.9375 1032.1704,654.7188 Q1031.561,654.5 1030.936,654.5 Q1030.1704,654.5 1029.5298,654.8281 Q1028.9048,655.1563 1028.4048,655.9063 Q1027.9204,656.6563 1027.9204,657.6875 L1027.9204,658.7813 Q1027.9204,660.0156 1028.811,660.8438 Q1029.7017,661.6563 1031.2954,661.6563 Q1032.2329,661.6563 1032.8892,661.4063 Q1033.2798,661.25 1033.7017,660.8125 Q1033.9673,660.5469 1034.1079,660.4688 Q1034.2642,660.3906 1034.4673,660.3906 Q1034.7954,660.3906 1035.0454,660.6563 Q1035.311,660.9063 1035.311,661.25 Q1035.311,661.5938 1034.9673,662 Q1034.4673,662.5781 1033.6704,662.9063 Q1032.5923,663.3594 1031.2954,663.3594 Q1029.7798,663.3594 1028.5767,662.7344 Q1027.5923,662.2344 1026.9048,661.1719 Q1026.2173,660.0938 1026.2173,658.8125 L1026.2173,657.6563 Q1026.2173,656.3281 1026.8267,655.1875 Q1027.4517,654.0313 1028.5454,653.4219 Q1029.6392,652.7969 1030.8735,652.7969 Q1031.6079,652.7969 1032.2485,652.9688 Q1032.9048,653.125 1033.4517,653.4844 Z " fill="#000000"/><text fill="#000000" font-family="sans-serif" font-size="14" lengthAdjust="spacing" textLength="40.4688" x="1051.186" y="663.3379">Rental</text><line style="stroke:#181818;stroke-width:0.5;" x1="971" x2="1139.3408" y1="673.6094" y2="673.6094"/><text fill="#000000" font-family="sans-serif" font-size="14" lengthAdjust="spacing" textLength="53.3135" x="976" y="692.1426">+Guid Id</text><text fill="#000000" font-family="sans-serif" font-size="14" lengthAdjust="spacing" textLength="136.5615" x="976" y="709.752">+string RentalNumber</text><text fill="#000000" font-family="sans-serif" font-size="14" lengthAdjust="spacing" textLength="152.1201" x="976" y="727.3613">+DateTime RentedAtUtc</text><text fill="#000000" font-family="sans-serif" font-size="14" lengthAdjust="spacing" textLength="132.6582" x="976" y="744.9707">+DateTime DueAtUtc</text><text fill="#000000" font-family="sans-serif" font-size="14" lengthAdjust="spacing" textLength="158.3408" x="976" y="762.5801">+DateTime? ClosedAtUtc</text><text fill="#000000" font-family="sans-serif" font-size="14" lengthAdjust="spacing" textLength="131.9131" x="976" y="780.1895">+RentalStatus Status</text><text fill="#000000" font-family="sans-serif" font-size="14" lengthAdjust="spacing" textLength="113.9961" x="976" y="797.7988">+Guid CustomerId</text><text fill="#000000" font-family="sans-serif" font-size="14" lengthAdjust="spacing" textLength="82.1064" x="976" y="815.4082">+Guid StaffId</text><text fill="#000000" font-family="sans-serif" font-size="14" lengthAdjust="spacing" textLength="97.6719" x="976" y="833.0176">+Guid BranchId</text></g><!--class RentalLine--><g class="entity" data-entity="RentalLine" data-source-line="114" data-uid="ent0017" id="entity_RentalLine"><rect fill="#F1F1F1" height="180.875" rx="2.5" ry="2.5" style="stroke:#181818;stroke-width:0.5;" width="184.3545" x="772" y="899.6094"/><ellipse cx="826.4585" cy="915.6094" fill="#ADD1B2" rx="11" ry="11" style="stroke:#181818;stroke-width:1;"/><path d="M829.2241,911.4844 Q829.3804,911.2656 829.5679,911.1563 Q829.7554,911.0469 829.9741,911.0469 Q830.3491,911.0469 830.5835,911.3125 Q830.8179,911.5625 830.8179,912.1719 L830.8179,913.625 Q830.8179,914.2344 830.5835,914.5 Q830.3491,914.7656 829.9741,914.7656 Q829.6304,914.7656 829.4272,914.5625 Q829.2241,914.375 829.1147,913.8594 Q829.0679,913.5 828.8804,913.3125 Q828.5522,912.9375 827.9429,912.7188 Q827.3335,912.5 826.7085,912.5 Q825.9429,912.5 825.3022,912.8281 Q824.6772,913.1563 824.1772,913.9063 Q823.6929,914.6563 823.6929,915.6875 L823.6929,916.7813 Q823.6929,918.0156 824.5835,918.8438 Q825.4741,919.6563 827.0679,919.6563 Q828.0054,919.6563 828.6616,919.4063 Q829.0522,919.25 829.4741,918.8125 Q829.7397,918.5469 829.8804,918.4688 Q830.0366,918.3906 830.2397,918.3906 Q830.5679,918.3906 830.8179,918.6563 Q831.0835,918.9063 831.0835,919.25 Q831.0835,919.5938 830.7397,920 Q830.2397,920.5781 829.4429,920.9063 Q828.3647,921.3594 827.0679,921.3594 Q825.5522,921.3594 824.3491,920.7344 Q823.3647,920.2344 822.6772,919.1719 Q821.9897,918.0938 821.9897,916.8125 L821.9897,915.6563 Q821.9897,914.3281 822.5991,913.1875 Q823.2241,912.0313 824.3179,911.4219 Q825.4116,910.7969 826.646,910.7969 Q827.3804,910.7969 828.021,910.9688 Q828.6772,911.125 829.2241,911.4844 Z " fill="#000000"/><text fill="#000000" font-family="sans-serif" font-size="14" lengthAdjust="spacing" textLength="66.9375" x="846.9585" y="921.3379">RentalLine</text><line style="stroke:#181818;stroke-width:0.5;" x1="773" x2="955.3545" y1="931.6094" y2="931.6094"/><text fill="#000000" font-family="sans-serif" font-size="14" lengthAdjust="spacing" textLength="53.3135" x="778" y="950.1426">+Guid Id</text><text fill="#000000" font-family="sans-serif" font-size="14" lengthAdjust="spacing" textLength="93.7822" x="778" y="967.752">+Guid RentalId</text><text fill="#000000" font-family="sans-serif" font-size="14" lengthAdjust="spacing" textLength="117.9063" x="778" y="985.3613">+Guid BookCopyId</text><text fill="#000000" font-family="sans-serif" font-size="14" lengthAdjust="spacing" textLength="172.3545" x="778" y="1002.9707">+DateTime? ReturnedAtUtc</text><text fill="#000000" font-family="sans-serif" font-size="14" lengthAdjust="spacing" textLength="142.7959" x="778" y="1020.5801">+decimal DailyLateFee</text><text fill="#000000" font-family="sans-serif" font-size="14" lengthAdjust="spacing" textLength="165.3818" x="778" y="1038.1895">+decimal LateFeeCharged</text><text fill="#000000" font-family="sans-serif" font-size="14" lengthAdjust="spacing" textLength="107.0166" x="778" y="1055.7988">+bool IsReturned</text><text fill="#000000" font-family="sans-serif" font-size="14" lengthAdjust="spacing" textLength="121.7822" x="778" y="1073.4082">+byte[] RowVersion</text></g><!--class Reservation--><g class="entity" data-entity="Reservation" data-source-line="125" data-uid="ent0018" id="entity_Reservation"><rect fill="#F1F1F1" height="145.6563" rx="2.5" ry="2.5" style="stroke:#181818;stroke-width:0.5;" width="178.8926" x="549.5" y="917.1094"/><ellipse cx="597.3447" cy="933.1094" fill="#ADD1B2" rx="11" ry="11" style="stroke:#181818;stroke-width:1;"/><path d="M600.1104,928.9844 Q600.2666,928.7656 600.4541,928.6563 Q600.6416,928.5469 600.8604,928.5469 Q601.2354,928.5469 601.4697,928.8125 Q601.7041,929.0625 601.7041,929.6719 L601.7041,931.125 Q601.7041,931.7344 601.4697,932 Q601.2354,932.2656 600.8604,932.2656 Q600.5166,932.2656 600.3135,932.0625 Q600.1104,931.875 600.001,931.3594 Q599.9541,931 599.7666,930.8125 Q599.4385,930.4375 598.8291,930.2188 Q598.2197,930 597.5947,930 Q596.8291,930 596.1885,930.3281 Q595.5635,930.6563 595.0635,931.4063 Q594.5791,932.1563 594.5791,933.1875 L594.5791,934.2813 Q594.5791,935.5156 595.4697,936.3438 Q596.3604,937.1563 597.9541,937.1563 Q598.8916,937.1563 599.5479,936.9063 Q599.9385,936.75 600.3604,936.3125 Q600.626,936.0469 600.7666,935.9688 Q600.9229,935.8906 601.126,935.8906 Q601.4541,935.8906 601.7041,936.1563 Q601.9697,936.4063 601.9697,936.75 Q601.9697,937.0938 601.626,937.5 Q601.126,938.0781 600.3291,938.4063 Q599.251,938.8594 597.9541,938.8594 Q596.4385,938.8594 595.2354,938.2344 Q594.251,937.7344 593.5635,936.6719 Q592.876,935.5938 592.876,934.3125 L592.876,933.1563 Q592.876,931.8281 593.4854,930.6875 Q594.1104,929.5313 595.2041,928.9219 Q596.2979,928.2969 597.5322,928.2969 Q598.2666,928.2969 598.9072,928.4688 Q599.5635,928.625 600.1104,928.9844 Z " fill="#000000"/><text fill="#000000" font-family="sans-serif" font-size="14" lengthAdjust="spacing" textLength="74.7031" x="617.8447" y="938.8379">Reservation</text><line style="stroke:#181818;stroke-width:0.5;" x1="550.5" x2="727.3926" y1="949.1094" y2="949.1094"/><text fill="#000000" font-family="sans-serif" font-size="14" lengthAdjust="spacing" textLength="53.3135" x="555.5" y="967.6426">+Guid Id</text><text fill="#000000" font-family="sans-serif" font-size="14" lengthAdjust="spacing" textLength="113.9961" x="555.5" y="985.252">+Guid CustomerId</text><text fill="#000000" font-family="sans-serif" font-size="14" lengthAdjust="spacing" textLength="117.9063" x="555.5" y="1002.8613">+Guid BookCopyId</text><text fill="#000000" font-family="sans-serif" font-size="14" lengthAdjust="spacing" textLength="166.8926" x="555.5" y="1020.4707">+DateTime ReservedAtUtc</text><text fill="#000000" font-family="sans-serif" font-size="14" lengthAdjust="spacing" textLength="153.6582" x="555.5" y="1038.0801">+DateTime ExpiresAtUtc</text><text fill="#000000" font-family="sans-serif" font-size="14" lengthAdjust="spacing" textLength="166.1475" x="555.5" y="1055.6895">+ReservationStatus Status</text></g><!--class Review--><g class="entity" data-entity="Review" data-source-line="134" data-uid="ent0019" id="entity_Review"><rect fill="#F1F1F1" height="145.6563" rx="2.5" ry="2.5" style="stroke:#181818;stroke-width:0.5;" width="168.7822" x="549.5" y="667.6094"/><ellipse cx="606.6895" cy="683.6094" fill="#ADD1B2" rx="11" ry="11" style="stroke:#181818;stroke-width:1;"/><path d="M609.4551,679.4844 Q609.6113,679.2656 609.7988,679.1563 Q609.9863,679.0469 610.2051,679.0469 Q610.5801,679.0469 610.8145,679.3125 Q611.0488,679.5625 611.0488,680.1719 L611.0488,681.625 Q611.0488,682.2344 610.8145,682.5 Q610.5801,682.7656 610.2051,682.7656 Q609.8613,682.7656 609.6582,682.5625 Q609.4551,682.375 609.3457,681.8594 Q609.2988,681.5 609.1113,681.3125 Q608.7832,680.9375 608.1738,680.7188 Q607.5645,680.5 606.9395,680.5 Q606.1738,680.5 605.5332,680.8281 Q604.9082,681.1563 604.4082,681.9063 Q603.9238,682.6563 603.9238,683.6875 L603.9238,684.7813 Q603.9238,686.0156 604.8145,686.8438 Q605.7051,687.6563 607.2988,687.6563 Q608.2363,687.6563 608.8926,687.4063 Q609.2832,687.25 609.7051,686.8125 Q609.9707,686.5469 610.1113,686.4688 Q610.2676,686.3906 610.4707,686.3906 Q610.7988,686.3906 611.0488,686.6563 Q611.3145,686.9063 611.3145,687.25 Q611.3145,687.5938 610.9707,688 Q610.4707,688.5781 609.6738,688.9063 Q608.5957,689.3594 607.2988,689.3594 Q605.7832,689.3594 604.5801,688.7344 Q603.5957,688.2344 602.9082,687.1719 Q602.2207,686.0938 602.2207,684.8125 L602.2207,683.6563 Q602.2207,682.3281 602.8301,681.1875 Q603.4551,680.0313 604.5488,679.4219 Q605.6426,678.7969 606.877,678.7969 Q607.6113,678.7969 608.252,678.9688 Q608.9082,679.125 609.4551,679.4844 Z " fill="#000000"/><text fill="#000000" font-family="sans-serif" font-size="14" lengthAdjust="spacing" textLength="45.9033" x="627.1895" y="689.3379">Review</text><line style="stroke:#181818;stroke-width:0.5;" x1="550.5" x2="717.2822" y1="699.6094" y2="699.6094"/><text fill="#000000" font-family="sans-serif" font-size="14" lengthAdjust="spacing" textLength="53.3135" x="555.5" y="718.1426">+Guid Id</text><text fill="#000000" font-family="sans-serif" font-size="14" lengthAdjust="spacing" textLength="85.2236" x="555.5" y="735.752">+Guid BookId</text><text fill="#000000" font-family="sans-serif" font-size="14" lengthAdjust="spacing" textLength="113.9961" x="555.5" y="753.3613">+Guid CustomerId</text><text fill="#000000" font-family="sans-serif" font-size="14" lengthAdjust="spacing" textLength="67.3203" x="555.5" y="770.9707">+int Rating</text><text fill="#000000" font-family="sans-serif" font-size="14" lengthAdjust="spacing" textLength="114.7686" x="555.5" y="788.5801">+string? Comment</text><text fill="#000000" font-family="sans-serif" font-size="14" lengthAdjust="spacing" textLength="156.7822" x="555.5" y="806.1895">+DateTime CreatedAtUtc</text></g><!--class BookCopyStatus--><g class="entity" data-entity="BookCopyStatus" data-source-line="143" data-uid="ent0020" id="entity_BookCopyStatus"><rect fill="#F1F1F1" height="128.0469" rx="2.5" ry="2.5" style="stroke:#181818;stroke-width:0.5;" width="136.2822" x="362" y="926.1094"/><ellipse cx="377" cy="942.1094" fill="#EB937F" rx="11" ry="11" style="stroke:#181818;stroke-width:1;"/><path d="M375.8594,942.9063 L375.8594,945.4063 L380.1875,945.4063 L380.1875,944.4844 Q380.1875,943.875 380.4219,943.6094 Q380.6719,943.3438 381.0469,943.3438 Q381.4219,943.3438 381.6563,943.6094 Q381.8906,943.875 381.8906,944.4844 L381.8906,947.1094 L373.8906,947.1094 Q373.2656,947.1094 373,946.875 Q372.75,946.6406 372.75,946.25 Q372.75,945.875 373.0156,945.6406 Q373.2813,945.4063 373.8906,945.4063 L374.1563,945.4063 L374.1563,938.75 L373.8906,938.75 Q373.2656,938.75 373,938.5156 Q372.75,938.2813 372.75,937.8906 Q372.75,937.5156 373,937.2813 Q373.2656,937.0469 373.8906,937.0469 L381.5156,937.0469 L381.5156,939.6406 Q381.5156,940.25 381.2813,940.5156 Q381.0625,940.7656 380.6719,940.7656 Q380.2969,940.7656 380.0625,940.5156 Q379.8281,940.25 379.8281,939.6406 L379.8281,938.75 L375.8594,938.75 L375.8594,941.2031 L377.3438,941.2031 Q377.3438,940.5469 377.4688,940.3594 Q377.7344,939.9531 378.2031,939.9531 Q378.5781,939.9531 378.8125,940.2188 Q379.0469,940.4688 379.0469,941.0781 L379.0469,943.0469 Q379.0469,943.5938 378.9219,943.7813 Q378.6563,944.1719 378.2031,944.1719 Q377.7344,944.1719 377.4688,943.7656 Q377.3438,943.5781 377.3438,942.9063 L375.8594,942.9063 Z " fill="#000000"/><text fill="#000000" font-family="sans-serif" font-size="14" lengthAdjust="spacing" textLength="104.2822" x="391" y="947.8379">BookCopyStatus</text><line style="stroke:#181818;stroke-width:0.5;" x1="363" x2="497.2822" y1="958.1094" y2="958.1094"/><text fill="#000000" font-family="sans-serif" font-size="14" lengthAdjust="spacing" textLength="56.8135" x="368" y="976.6426">Available</text><text fill="#000000" font-family="sans-serif" font-size="14" lengthAdjust="spacing" textLength="45.1445" x="368" y="994.252">Rented</text><text fill="#000000" font-family="sans-serif" font-size="14" lengthAdjust="spacing" textLength="59.917" x="368" y="1011.8613">Reserved</text><text fill="#000000" font-family="sans-serif" font-size="14" lengthAdjust="spacing" textLength="26.4619" x="368" y="1029.4707">Lost</text><text fill="#000000" font-family="sans-serif" font-size="14" lengthAdjust="spacing" textLength="80.165" x="368" y="1047.0801">Maintenance</text></g><!--class CustomerStatus--><g class="entity" data-entity="CustomerStatus" data-source-line="151" data-uid="ent0021" id="entity_CustomerStatus"><rect fill="#F1F1F1" height="92.8281" rx="2.5" ry="2.5" style="stroke:#181818;stroke-width:0.5;" width="132.3721" x="1175" y="694.1094"/><ellipse cx="1190" cy="710.1094" fill="#EB937F" rx="11" ry="11" style="stroke:#181818;stroke-width:1;"/><path d="M1188.8594,710.9063 L1188.8594,713.4063 L1193.1875,713.4063 L1193.1875,712.4844 Q1193.1875,711.875 1193.4219,711.6094 Q1193.6719,711.3438 1194.0469,711.3438 Q1194.4219,711.3438 1194.6563,711.6094 Q1194.8906,711.875 1194.8906,712.4844 L1194.8906,715.1094 L1186.8906,715.1094 Q1186.2656,715.1094 1186,714.875 Q1185.75,714.6406 1185.75,714.25 Q1185.75,713.875 1186.0156,713.6406 Q1186.2813,713.4063 1186.8906,713.4063 L1187.1563,713.4063 L1187.1563,706.75 L1186.8906,706.75 Q1186.2656,706.75 1186,706.5156 Q1185.75,706.2813 1185.75,705.8906 Q1185.75,705.5156 1186,705.2813 Q1186.2656,705.0469 1186.8906,705.0469 L1194.5156,705.0469 L1194.5156,707.6406 Q1194.5156,708.25 1194.2813,708.5156 Q1194.0625,708.7656 1193.6719,708.7656 Q1193.2969,708.7656 1193.0625,708.5156 Q1192.8281,708.25 1192.8281,707.6406 L1192.8281,706.75 L1188.8594,706.75 L1188.8594,709.2031 L1190.3438,709.2031 Q1190.3438,708.5469 1190.4688,708.3594 Q1190.7344,707.9531 1191.2031,707.9531 Q1191.5781,707.9531 1191.8125,708.2188 Q1192.0469,708.4688 1192.0469,709.0781 L1192.0469,711.0469 Q1192.0469,711.5938 1191.9219,711.7813 Q1191.6563,712.1719 1191.2031,712.1719 Q1190.7344,712.1719 1190.4688,711.7656 Q1190.3438,711.5781 1190.3438,710.9063 L1188.8594,710.9063 Z " fill="#000000"/><text fill="#000000" font-family="sans-serif" font-size="14" lengthAdjust="spacing" textLength="100.3721" x="1204" y="715.8379">CustomerStatus</text><line style="stroke:#181818;stroke-width:0.5;" x1="1176" x2="1306.3721" y1="726.1094" y2="726.1094"/><text fill="#000000" font-family="sans-serif" font-size="14" lengthAdjust="spacing" textLength="38.124" x="1181" y="744.6426">Active</text><text fill="#000000" font-family="sans-serif" font-size="14" lengthAdjust="spacing" textLength="70.8408" x="1181" y="762.252">Suspended</text><text fill="#000000" font-family="sans-serif" font-size="14" lengthAdjust="spacing" textLength="43.5791" x="1181" y="779.8613">Closed</text></g><!--class RentalStatus--><g class="entity" data-entity="RentalStatus" data-source-line="157" data-uid="ent0022" id="entity_RentalStatus"><rect fill="#F1F1F1" height="110.4375" rx="2.5" ry="2.5" style="stroke:#181818;stroke-width:0.5;" width="112.1582" x="999" y="935.1094"/><ellipse cx="1014" cy="951.1094" fill="#EB937F" rx="11" ry="11" style="stroke:#181818;stroke-width:1;"/><path d="M1012.8594,951.9063 L1012.8594,954.4063 L1017.1875,954.4063 L1017.1875,953.4844 Q1017.1875,952.875 1017.4219,952.6094 Q1017.6719,952.3438 1018.0469,952.3438 Q1018.4219,952.3438 1018.6563,952.6094 Q1018.8906,952.875 1018.8906,953.4844 L1018.8906,956.1094 L1010.8906,956.1094 Q1010.2656,956.1094 1010,955.875 Q1009.75,955.6406 1009.75,955.25 Q1009.75,954.875 1010.0156,954.6406 Q1010.2813,954.4063 1010.8906,954.4063 L1011.1563,954.4063 L1011.1563,947.75 L1010.8906,947.75 Q1010.2656,947.75 1010,947.5156 Q1009.75,947.2813 1009.75,946.8906 Q1009.75,946.5156 1010,946.2813 Q1010.2656,946.0469 1010.8906,946.0469 L1018.5156,946.0469 L1018.5156,948.6406 Q1018.5156,949.25 1018.2813,949.5156 Q1018.0625,949.7656 1017.6719,949.7656 Q1017.2969,949.7656 1017.0625,949.5156 Q1016.8281,949.25 1016.8281,948.6406 L1016.8281,947.75 L1012.8594,947.75 L1012.8594,950.2031 L1014.3438,950.2031 Q1014.3438,949.5469 1014.4688,949.3594 Q1014.7344,948.9531 1015.2031,948.9531 Q1015.5781,948.9531 1015.8125,949.2188 Q1016.0469,949.4688 1016.0469,950.0781 L1016.0469,952.0469 Q1016.0469,952.5938 1015.9219,952.7813 Q1015.6563,953.1719 1015.2031,953.1719 Q1014.7344,953.1719 1014.4688,952.7656 Q1014.3438,952.5781 1014.3438,951.9063 L1012.8594,951.9063 Z " fill="#000000"/><text fill="#000000" font-family="sans-serif" font-size="14" lengthAdjust="spacing" textLength="80.1582" x="1028" y="956.8379">RentalStatus</text><line style="stroke:#181818;stroke-width:0.5;" x1="1000" x2="1110.1582" y1="967.1094" y2="967.1094"/><text fill="#000000" font-family="sans-serif" font-size="14" lengthAdjust="spacing" textLength="34.248" x="1005" y="985.6426">Open</text><text fill="#000000" font-family="sans-serif" font-size="14" lengthAdjust="spacing" textLength="43.5791" x="1005" y="1003.252">Closed</text><text fill="#000000" font-family="sans-serif" font-size="14" lengthAdjust="spacing" textLength="53.6963" x="1005" y="1020.8613">Overdue</text><text fill="#000000" font-family="sans-serif" font-size="14" lengthAdjust="spacing" textLength="62.2617" x="1005" y="1038.4707">Cancelled</text></g><!--class ReservationStatus--><g class="entity" data-entity="ReservationStatus" data-source-line="164" data-uid="ent0023" id="entity_ReservationStatus"><rect fill="#F1F1F1" height="110.4375" rx="2.5" ry="2.5" style="stroke:#181818;stroke-width:0.5;" width="146.3926" x="566" y="1140.6094"/><ellipse cx="581" cy="1156.6094" fill="#EB937F" rx="11" ry="11" style="stroke:#181818;stroke-width:1;"/><path d="M579.8594,1157.4063 L579.8594,1159.9063 L584.1875,1159.9063 L584.1875,1158.9844 Q584.1875,1158.375 584.4219,1158.1094 Q584.6719,1157.8438 585.0469,1157.8438 Q585.4219,1157.8438 585.6563,1158.1094 Q585.8906,1158.375 585.8906,1158.9844 L585.8906,1161.6094 L577.8906,1161.6094 Q577.2656,1161.6094 577,1161.375 Q576.75,1161.1406 576.75,1160.75 Q576.75,1160.375 577.0156,1160.1406 Q577.2813,1159.9063 577.8906,1159.9063 L578.1563,1159.9063 L578.1563,1153.25 L577.8906,1153.25 Q577.2656,1153.25 577,1153.0156 Q576.75,1152.7813 576.75,1152.3906 Q576.75,1152.0156 577,1151.7813 Q577.2656,1151.5469 577.8906,1151.5469 L585.5156,1151.5469 L585.5156,1154.1406 Q585.5156,1154.75 585.2813,1155.0156 Q585.0625,1155.2656 584.6719,1155.2656 Q584.2969,1155.2656 584.0625,1155.0156 Q583.8281,1154.75 583.8281,1154.1406 L583.8281,1153.25 L579.8594,1153.25 L579.8594,1155.7031 L581.3438,1155.7031 Q581.3438,1155.0469 581.4688,1154.8594 Q581.7344,1154.4531 582.2031,1154.4531 Q582.5781,1154.4531 582.8125,1154.7188 Q583.0469,1154.9688 583.0469,1155.5781 L583.0469,1157.5469 Q583.0469,1158.0938 582.9219,1158.2813 Q582.6563,1158.6719 582.2031,1158.6719 Q581.7344,1158.6719 581.4688,1158.2656 Q581.3438,1158.0781 581.3438,1157.4063 L579.8594,1157.4063 Z " fill="#000000"/><text fill="#000000" font-family="sans-serif" font-size="14" lengthAdjust="spacing" textLength="114.3926" x="595" y="1162.3379">ReservationStatus</text><line style="stroke:#181818;stroke-width:0.5;" x1="567" x2="711.3926" y1="1172.6094" y2="1172.6094"/><text fill="#000000" font-family="sans-serif" font-size="14" lengthAdjust="spacing" textLength="38.124" x="572" y="1191.1426">Active</text><text fill="#000000" font-family="sans-serif" font-size="14" lengthAdjust="spacing" textLength="48.2412" x="572" y="1208.752">Fulfilled</text><text fill="#000000" font-family="sans-serif" font-size="14" lengthAdjust="spacing" textLength="62.2617" x="572" y="1226.3613">Cancelled</text><text fill="#000000" font-family="sans-serif" font-size="14" lengthAdjust="spacing" textLength="47.4688" x="572" y="1243.9707">Expired</text></g><g class="entity" data-entity="GMN48" data-source-line="205" data-uid="ent0049" id="entity_GMN48"><path d="M1363,168.1094 L1363,193.6094 L1268.57,197.6094 L1363,201.6094 L1363,227.1641 A0,0 0 0 0 1363,227.1641 L1548.728,227.1641 A0,0 0 0 0 1548.728,227.1641 L1548.728,178.1094 L1538.728,168.1094 L1363,168.1094 A0,0 0 0 0 1363,168.1094" fill="#FEFFDD" style="stroke:#181818;stroke-width:0.5;"/><path d="M1538.728,168.1094 L1538.728,178.1094 L1548.728,178.1094 L1538.728,168.1094" fill="#FEFFDD" style="stroke:#181818;stroke-width:0.5;"/><text fill="#000000" font-family="sans-serif" font-size="13" lengthAdjust="spacing" textLength="164.728" x="1369" y="186.6045">EF Core table-per-hierarchy:</text><text fill="#000000" font-family="sans-serif" font-size="13" lengthAdjust="spacing" textLength="105.4854" x="1369" y="202.9561">table LibraryUsers</text><text fill="#000000" font-family="sans-serif" font-size="13" lengthAdjust="spacing" textLength="133.6436" x="1369" y="219.3076">discriminator UserType</text></g><g class="entity" data-entity="GMN51" data-source-line="211" data-uid="ent0052" id="entity_GMN51"><path d="M1363,434.6094 L1363,477.3125 L1489.4917,477.3125 L1489.4917,444.6094 L1479.4917,434.6094 L1363,434.6094" fill="#FEFFDD" style="stroke:#181818;stroke-width:0.5;"/><path d="M1479.4917,434.6094 L1479.4917,444.6094 L1489.4917,444.6094 L1479.4917,434.6094" fill="#FEFFDD" style="stroke:#181818;stroke-width:1;"/><text fill="#000000" font-family="sans-serif" font-size="13" lengthAdjust="spacing" textLength="105.4917" x="1369" y="453.1045">Global query filter:</text><text fill="#000000" font-family="sans-serif" font-size="13" lengthAdjust="spacing" textLength="97.1953" x="1369" y="469.4561">IsDeleted = false</text></g><g class="entity" data-entity="GMN54" data-source-line="216" data-uid="ent0055" id="entity_GMN54"><path d="M1363,719.1094 L1363,761.8125 L1537.1689,761.8125 L1537.1689,729.1094 L1527.1689,719.1094 L1363,719.1094" fill="#FEFFDD" style="stroke:#181818;stroke-width:0.5;"/><path d="M1527.1689,719.1094 L1527.1689,729.1094 L1537.1689,729.1094 L1527.1689,719.1094" fill="#FEFFDD" style="stroke:#181818;stroke-width:1;"/><text fill="#000000" font-family="sans-serif" font-size="13" lengthAdjust="spacing" textLength="153.1689" x="1369" y="737.6045">RowVersion is an EF Core</text><text fill="#000000" font-family="sans-serif" font-size="13" lengthAdjust="spacing" textLength="109.8335" x="1369" y="753.9561">concurrency token.</text></g><!--reverse link LibraryUser to Customer--><g class="link" data-entity-1="LibraryUser" data-entity-2="Customer" data-source-line="172" data-uid="lnk24" id="link_LibraryUser_Customer"><path codeLine="172" d="M1155.83,288.6094 C1155.83,350.2694 1155.83,410.6094 1155.83,410.6094 C1155.83,410.6094 1109.81,410.6094 1063.69,410.6094" fill="none" id="LibraryUser-backto-Customer" style="stroke:#181818;stroke-width:1;"/><polygon fill="none" points="1155.83,270.6094,1149.83,288.6094,1161.83,288.6094,1155.83,270.6094" style="stroke:#181818;stroke-width:1;"/></g><!--reverse link LibraryUser to Staff--><g class="link" data-entity-1="LibraryUser" data-entity-2="Staff" data-source-line="173" data-uid="lnk25" id="link_LibraryUser_Staff"><path codeLine="173" d="M1212.17,288.6494 C1212.17,336.7194 1212.17,379.6794 1212.17,418.3094" fill="none" id="LibraryUser-backto-Staff" style="stroke:#181818;stroke-width:1;"/><polygon fill="none" points="1212.17,270.6494,1206.17,288.6494,1218.17,288.6494,1212.17,270.6494" style="stroke:#181818;stroke-width:1;"/></g><!--reverse link Customer to Address--><g class="link" data-entity-1="Customer" data-entity-2="Address" data-source-line="175" data-uid="lnk26" id="link_Customer_Address"><path codeLine="175" d="M893.12,523.2994 C893.12,568.8694 893.12,621.8094 893.12,670.9494" fill="none" id="Customer-backto-Address" style="stroke:#181818;stroke-width:1;"/><polygon fill="#181818" points="893.12,511.2994,889.12,517.2994,893.12,523.2994,897.12,517.2994,893.12,511.2994" style="stroke:#181818;stroke-width:1;"/><text fill="#000000" font-family="sans-serif" font-size="13" lengthAdjust="spacing" textLength="30.3481" x="862.12" y="587.6245">owns</text></g><!--reverse link LibraryBranch to Address--><g class="link" data-entity-1="LibraryBranch" data-entity-2="Address" data-source-line="176" data-uid="lnk27" id="link_LibraryBranch_Address"><path codeLine="176" d="M783.83,523.2994 C783.83,568.8694 783.83,621.8094 783.83,670.9494" fill="none" id="LibraryBranch-backto-Address" style="stroke:#181818;stroke-width:1;"/><polygon fill="#181818" points="783.83,511.2994,779.83,517.2994,783.83,523.2994,787.83,517.2994,783.83,511.2994" style="stroke:#181818;stroke-width:1;"/><text fill="#000000" font-family="sans-serif" font-size="13" lengthAdjust="spacing" textLength="30.3481" x="752.83" y="587.6245">owns</text></g><!--reverse link Publisher to Book--><g class="link" data-entity-1="Publisher" data-entity-2="Book" data-source-line="178" data-uid="lnk28" id="link_Publisher_Book"><path codeLine="178" d="M494,250.1194 C494,274.4694 494,299.5794 494,330.4094" fill="none" id="Publisher-backto-Book" style="stroke:#181818;stroke-width:1;"/><polygon fill="#181818" points="494,244.1194,490,253.1194,494,249.1194,498,253.1194,494,244.1194" style="stroke:#181818;stroke-width:1;"/><text fill="#000000" font-family="sans-serif" font-size="13" lengthAdjust="spacing" textLength="54.9263" x="439" y="283.7645">publishes</text><text fill="#000000" font-family="sans-serif" font-size="13" lengthAdjust="spacing" textLength="7.23" x="486.548" y="265.3168">1</text><text fill="#000000" font-family="sans-serif" font-size="13" lengthAdjust="spacing" textLength="19.5127" x="474.4494" y="319.7583">0..*</text></g><!--reverse link Book to BookAuthor--><g class="link" data-entity-1="Book" data-entity-2="BookAuthor" data-source-line="179" data-uid="lnk29" id="link_Book_BookAuthor"><path codeLine="179" d="M389.79,561.6094 C331.65,561.6094 279.5,561.6094 279.5,561.6094 C279.5,561.6094 279.5,635.5194 279.5,688.3494" fill="none" id="Book-backto-BookAuthor" style="stroke:#181818;stroke-width:1;"/><polygon fill="none" points="401.79,561.6094,395.79,557.6094,389.79,561.6094,395.79,565.6094,401.79,561.6094" style="stroke:#181818;stroke-width:1;"/><text fill="#000000" font-family="sans-serif" font-size="13" lengthAdjust="spacing" textLength="7.23" x="386.8908" y="567.1803">1</text><text fill="#000000" font-family="sans-serif" font-size="13" lengthAdjust="spacing" textLength="19.5127" x="262.3108" y="677.8022">0..*</text></g><!--reverse link Author to BookAuthor--><g class="link" data-entity-1="Author" data-entity-2="BookAuthor" data-source-line="180" data-uid="lnk30" id="link_Author_BookAuthor"><path codeLine="180" d="M248.5,532.3094 C248.5,583.1194 248.5,641.1594 248.5,688.5194" fill="none" id="Author-backto-BookAuthor" style="stroke:#181818;stroke-width:1;"/><polygon fill="none" points="248.5,520.3094,244.5,526.3094,248.5,532.3094,252.5,526.3094,248.5,520.3094" style="stroke:#181818;stroke-width:1;"/><text fill="#000000" font-family="sans-serif" font-size="13" lengthAdjust="spacing" textLength="7.23" x="236.3956" y="541.718">1</text><text fill="#000000" font-family="sans-serif" font-size="13" lengthAdjust="spacing" textLength="19.5127" x="227.0356" y="677.622">0..*</text></g><!--reverse link Book to BookCategory--><g class="link" data-entity-1="Book" data-entity-2="BookCategory" data-source-line="181" data-uid="lnk31" id="link_Book_BookCategory"><path codeLine="181" d="M389.95,540.6094 C281.33,540.6094 127.33,540.6094 127.33,540.6094 C127.33,540.6094 127.33,638.3894 127.33,697.2094" fill="none" id="Book-backto-BookCategory" style="stroke:#181818;stroke-width:1;"/><polygon fill="none" points="401.95,540.6094,395.95,536.6094,389.95,540.6094,395.95,544.6094,401.95,540.6094" style="stroke:#181818;stroke-width:1;"/><text fill="#000000" font-family="sans-serif" font-size="13" lengthAdjust="spacing" textLength="7.23" x="386.7665" y="544.6804">1</text><text fill="#000000" font-family="sans-serif" font-size="13" lengthAdjust="spacing" textLength="19.5127" x="110.0184" y="686.8668">0..*</text></g><!--reverse link Category to BookCategory--><g class="link" data-entity-1="Category" data-entity-2="BookCategory" data-source-line="182" data-uid="lnk32" id="link_Category_BookCategory"><path codeLine="182" d="M86.67,514.7694 C86.67,568.6794 86.67,644.6894 86.67,697.1894" fill="none" id="Category-backto-BookCategory" style="stroke:#181818;stroke-width:1;"/><polygon fill="none" points="86.67,502.7694,82.67,508.7694,86.67,514.7694,90.67,508.7694,86.67,502.7694" style="stroke:#181818;stroke-width:1;"/><text fill="#000000" font-family="sans-serif" font-size="13" lengthAdjust="spacing" textLength="7.23" x="75.3427" y="523.9879">1</text><text fill="#000000" font-family="sans-serif" font-size="13" lengthAdjust="spacing" textLength="19.5127" x="63.1323" y="686.8437">0..*</text></g><!--reverse link Book to BookCopy--><g class="link" data-entity-1="Book" data-entity-2="BookCopy" data-source-line="184" data-uid="lnk33" id="link_Book_BookCopy"><path codeLine="184" d="M458,587.7194 C458,607.6694 458,622.0594 458,641.2894" fill="none" id="Book-backto-BookCopy" style="stroke:#181818;stroke-width:1;"/><polygon fill="#181818" points="458,581.7194,454,590.7194,458,586.7194,462,590.7194,458,581.7194" style="stroke:#181818;stroke-width:1;"/><text fill="#000000" font-family="sans-serif" font-size="13" lengthAdjust="spacing" textLength="7.23" x="448.6127" y="603.3575">1</text><text fill="#000000" font-family="sans-serif" font-size="13" lengthAdjust="spacing" textLength="19.5127" x="440.3761" y="630.8983">0..*</text></g><!--reverse link LibraryBranch to BookCopy--><g class="link" data-entity-1="LibraryBranch" data-entity-2="BookCopy" data-source-line="185" data-uid="lnk34" id="link_LibraryBranch_BookCopy"><path codeLine="185" d="M721.83,517.3294 C721.83,574.8294 721.83,650.6094 721.83,650.6094 C721.83,650.6094 600.23,650.6094 514.02,650.6094" fill="none" id="LibraryBranch-backto-BookCopy" style="stroke:#181818;stroke-width:1;"/><polygon fill="#181818" points="721.83,511.3294,717.83,520.3294,721.83,516.3294,725.83,520.3294,721.83,511.3294" style="stroke:#181818;stroke-width:1;"/><text fill="#000000" font-family="sans-serif" font-size="13" lengthAdjust="spacing" textLength="7.23" x="706.9572" y="532.919">1</text><text fill="#000000" font-family="sans-serif" font-size="13" lengthAdjust="spacing" textLength="19.5127" x="522.0773" y="639.6769">0..*</text></g><!--reverse link Customer to Rental--><g class="link" data-entity-1="Customer" data-entity-2="Rental" data-source-line="187" data-uid="lnk35" id="link_Customer_Rental"><path codeLine="187" d="M1016.75,517.2994 C1016.75,554.2294 1016.75,597.8594 1016.75,641.5094" fill="none" id="Customer-backto-Rental" style="stroke:#181818;stroke-width:1;"/><polygon fill="#181818" points="1016.75,511.2994,1012.75,520.2994,1016.75,516.2994,1020.75,520.2994,1016.75,511.2994" style="stroke:#181818;stroke-width:1;"/><text fill="#000000" font-family="sans-serif" font-size="13" lengthAdjust="spacing" textLength="7.23" x="1015.1703" y="532.8852">1</text><text fill="#000000" font-family="sans-serif" font-size="13" lengthAdjust="spacing" textLength="19.5127" x="994.1007" y="630.7996">0..*</text></g><!--reverse link Staff to Rental--><g class="link" data-entity-1="Staff" data-entity-2="Rental" data-source-line="188" data-uid="lnk36" id="link_Staff_Rental"><path codeLine="188" d="M1119.5,499.8894 C1119.5,537.3694 1119.5,590.4294 1119.5,641.3694" fill="none" id="Staff-backto-Rental" style="stroke:#181818;stroke-width:1;"/><polygon fill="#181818" points="1119.5,493.8894,1115.5,502.8894,1119.5,498.8894,1123.5,502.8894,1119.5,493.8894" style="stroke:#181818;stroke-width:1;"/><text fill="#000000" font-family="sans-serif" font-size="13" lengthAdjust="spacing" textLength="7.23" x="1100.8024" y="515.2643">1</text><text fill="#000000" font-family="sans-serif" font-size="13" lengthAdjust="spacing" textLength="19.5127" x="1104.7175" y="630.6488">0..*</text></g><!--reverse link LibraryBranch to Rental--><g class="link" data-entity-1="LibraryBranch" data-entity-2="Rental" data-source-line="189" data-uid="lnk37" id="link_LibraryBranch_Rental"><path codeLine="189" d="M813.67,517.1794 C813.67,577.4494 813.67,659.6094 813.67,659.6094 C813.67,659.6094 900.43,659.6094 969.91,659.6094" fill="none" id="LibraryBranch-backto-Rental" style="stroke:#181818;stroke-width:1;"/><polygon fill="#181818" points="813.67,511.1794,809.67,520.1794,813.67,516.1794,817.67,520.1794,813.67,511.1794" style="stroke:#181818;stroke-width:1;"/><text fill="#000000" font-family="sans-serif" font-size="13" lengthAdjust="spacing" textLength="7.23" x="810.7542" y="533.1437">1</text><text fill="#000000" font-family="sans-serif" font-size="13" lengthAdjust="spacing" textLength="19.5127" x="942.4932" y="649.172">0..*</text></g><!--reverse link Rental to RentalLine--><g class="link" data-entity-1="Rental" data-entity-2="RentalLine" data-source-line="190" data-uid="lnk38" id="link_Rental_RentalLine"><path codeLine="190" d="M984.5,851.7194 C984.5,892.1594 984.5,917.6094 984.5,917.6094 C984.5,917.6094 972.58,917.6094 956.25,917.6094" fill="none" id="Rental-backto-RentalLine" style="stroke:#181818;stroke-width:1;"/><polygon fill="#181818" points="984.5,839.7194,980.5,845.7194,984.5,851.7194,988.5,845.7194,984.5,839.7194" style="stroke:#181818;stroke-width:1;"/><text fill="#000000" font-family="sans-serif" font-size="13" lengthAdjust="spacing" textLength="7.23" x="971.5987" y="861.7445">1</text><text fill="#000000" font-family="sans-serif" font-size="13" lengthAdjust="spacing" textLength="19.5127" x="964.3645" y="908.7086">1..*</text></g><!--reverse link BookCopy to RentalLine--><g class="link" data-entity-1="BookCopy" data-entity-2="RentalLine" data-source-line="191" data-uid="lnk39" id="link_BookCopy_RentalLine"><path codeLine="191" d="M510,845.7894 C510,882.1694 510,908.6094 510,908.6094 C510,908.6094 667.03,908.6094 771.91,908.6094" fill="none" id="BookCopy-backto-RentalLine" style="stroke:#181818;stroke-width:1;"/><polygon fill="#181818" points="510,839.7894,506,848.7894,510,844.7894,514,848.7894,510,839.7894" style="stroke:#181818;stroke-width:1;"/><text fill="#000000" font-family="sans-serif" font-size="13" lengthAdjust="spacing" textLength="7.23" x="516.4004" y="861.4854">1</text><text fill="#000000" font-family="sans-serif" font-size="13" lengthAdjust="spacing" textLength="19.5127" x="744.5036" y="898.7125">0..*</text></g><!--reverse link Customer to Reservation--><g class="link" data-entity-1="Customer" data-entity-2="Reservation" data-source-line="193" data-uid="lnk40" id="link_Customer_Reservation"><path codeLine="193" d="M888.25,517.2194 C888.25,565.3594 888.25,621.6094 888.25,621.6094 C888.25,621.6094 725.17,621.6094 725.17,621.6094 C725.17,621.6094 725.17,809.3994 725.17,916.8694" fill="none" id="Customer-backto-Reservation" style="stroke:#181818;stroke-width:1;"/><polygon fill="#181818" points="888.25,511.2194,884.25,520.2194,888.25,516.2194,892.25,520.2194,888.25,511.2194" style="stroke:#181818;stroke-width:1;"/><text fill="#000000" font-family="sans-serif" font-size="13" lengthAdjust="spacing" textLength="7.23" x="869.6675" y="533.1891">1</text><text fill="#000000" font-family="sans-serif" font-size="13" lengthAdjust="spacing" textLength="19.5127" x="714.1086" y="906.0225">0..*</text></g><!--reverse link BookCopy to Reservation--><g class="link" data-entity-1="BookCopy" data-entity-2="Reservation" data-source-line="194" data-uid="lnk41" id="link_BookCopy_Reservation"><path codeLine="194" d="M506,845.8494 C506,888.0094 506,921.6094 506,921.6094 C506,921.6094 525.29,921.6094 549.18,921.6094" fill="none" id="BookCopy-backto-Reservation" style="stroke:#181818;stroke-width:1;"/><polygon fill="#181818" points="506,839.8494,502,848.8494,506,844.8494,510,848.8494,506,839.8494" style="stroke:#181818;stroke-width:1;"/><text fill="#000000" font-family="sans-serif" font-size="13" lengthAdjust="spacing" textLength="7.23" x="504.5582" y="861.55">1</text><text fill="#000000" font-family="sans-serif" font-size="13" lengthAdjust="spacing" textLength="19.5127" x="521.9807" y="912.7981">0..*</text></g><!--reverse link Book to Review--><g class="link" data-entity-1="Book" data-entity-2="Review" data-source-line="196" data-uid="lnk42" id="link_Book_Review"><path codeLine="196" d="M567.75,587.7194 C567.75,617.0494 567.75,641.3294 567.75,667.4894" fill="none" id="Book-backto-Review" style="stroke:#181818;stroke-width:1;"/><polygon fill="#181818" points="567.75,581.7194,563.75,590.7194,567.75,586.7194,571.75,590.7194,567.75,581.7194" style="stroke:#181818;stroke-width:1;"/><text fill="#000000" font-family="sans-serif" font-size="13" lengthAdjust="spacing" textLength="7.23" x="565.0506" y="603.3575">1</text><text fill="#000000" font-family="sans-serif" font-size="13" lengthAdjust="spacing" textLength="19.5127" x="540.9759" y="656.6548">0..*</text></g><!--reverse link Customer to Review--><g class="link" data-entity-1="Customer" data-entity-2="Review" data-source-line="197" data-uid="lnk43" id="link_Customer_Review"><path codeLine="197" d="M883.38,517.1194 C883.38,558.3194 883.38,601.6094 883.38,601.6094 C883.38,601.6094 651.25,601.6094 651.25,601.6094 C651.25,601.6094 651.25,633.9594 651.25,667.4494" fill="none" id="Customer-backto-Review" style="stroke:#181818;stroke-width:1;"/><polygon fill="#181818" points="883.38,511.1194,879.38,520.1194,883.38,516.1194,887.38,520.1194,883.38,511.1194" style="stroke:#181818;stroke-width:1;"/><text fill="#000000" font-family="sans-serif" font-size="13" lengthAdjust="spacing" textLength="7.23" x="864.1431" y="533.0757">1</text><text fill="#000000" font-family="sans-serif" font-size="13" lengthAdjust="spacing" textLength="19.5127" x="633.0869" y="656.6107">0..*</text></g><!--link BookCopy to BookCopyStatus--><g class="link" data-entity-1="BookCopy" data-entity-2="BookCopyStatus" data-source-line="199" data-uid="lnk44" id="link_BookCopy_BookCopyStatus"><path codeLine="199" d="M430,839.9394 C430,868.8794 430,893.7294 430,919.8994" fill="none" id="BookCopy-to-BookCopyStatus" style="stroke:#181818;stroke-width:1;"/><polygon fill="#181818" points="430,925.8994,434,916.8994,430,920.8994,426,916.8994,430,925.8994" style="stroke:#181818;stroke-width:1;"/></g><!--link Customer to CustomerStatus--><g class="link" data-entity-1="Customer" data-entity-2="CustomerStatus" data-source-line="200" data-uid="lnk45" id="link_Customer_CustomerStatus"><path codeLine="200" d="M1063.75,502.6094 C1135.25,502.6094 1222,502.6094 1222,502.6094 C1222,502.6094 1222,618.5594 1222,687.8694" fill="none" id="Customer-to-CustomerStatus" style="stroke:#181818;stroke-width:1;"/><polygon fill="#181818" points="1222,693.8694,1226,684.8694,1222,688.8694,1218,684.8694,1222,693.8694" style="stroke:#181818;stroke-width:1;"/></g><!--link Rental to RentalStatus--><g class="link" data-entity-1="Rental" data-entity-2="RentalStatus" data-source-line="201" data-uid="lnk46" id="link_Rental_RentalStatus"><path codeLine="201" d="M1055,839.9394 C1055,872.2794 1055,900.9994 1055,928.8994" fill="none" id="Rental-to-RentalStatus" style="stroke:#181818;stroke-width:1;"/><polygon fill="#181818" points="1055,934.8994,1059,925.8994,1055,929.8994,1051,925.8994,1055,934.8994" style="stroke:#181818;stroke-width:1;"/></g><!--link Reservation to ReservationStatus--><g class="link" data-entity-1="Reservation" data-entity-2="ReservationStatus" data-source-line="202" data-uid="lnk47" id="link_Reservation_ReservationStatus"><path codeLine="202" d="M639,1063.1394 C639,1088.6394 639,1110.7994 639,1134.5794" fill="none" id="Reservation-to-ReservationStatus" style="stroke:#181818;stroke-width:1;"/><polygon fill="#181818" points="639,1140.5794,643,1131.5794,639,1135.5794,635,1131.5794,639,1140.5794" style="stroke:#181818;stroke-width:1;"/></g><!--link Book to GMN51--><g class="link" data-entity-1="Book" data-entity-2="GMN51" data-source-line="211" data-uid="lnk53" id="link_Book_GMN51"><path d="M586.34,546.6094 C821.78,546.6094 1426,546.6094 1426,546.6094 C1426,546.6094 1426,504.7994 1426,478.0194" fill="none" id="Book-GMN51" style="stroke:#181818;stroke-width:1;stroke-dasharray:7.0,7.0;"/></g><!--link BookCopy to GMN54--><g class="link" data-entity-1="BookCopy" data-entity-2="GMN54" data-source-line="216" data-uid="lnk56" id="link_BookCopy_GMN54"><path d="M502,839.6894 C502,857.0094 502,869.6094 502,869.6094 C502,869.6094 1450,869.6094 1450,869.6094 C1450,869.6094 1450,798.9194 1450,762.1994" fill="none" id="BookCopy-GMN54" style="stroke:#181818;stroke-width:1;stroke-dasharray:7.0,7.0;"/></g><!--SRC=[fLTRRzis57xNho3ysC51-nfu2HpPwJAuJH0dAufX3vHqRB6HI9Mad6cN_xv3aP95MXOQxCMMpltwaT9C5q2sjAmAM3xSaGrB99KDMOcICaxYWYf5Lepk9IsZIBqmNb5y9AbXBBMMBAartAM2RzbVGDuFH0h6GJSL425rBgASPK2Wh7H3Ia12fgAeekaBtGEPzG5ShBbcce6QaRyZGcYYjAIfjlwww9uLo9PDo4yVQvQHkyo-e33ZUtBBfDAVQGaUTKD7Y6jCi_0e3xdWJcP5DJon4aWi0H-pfNxMARB-ZV37HXJNIelo68upyWdA1AJAMVMvDa-MsGblDTMr8lRlwEgU5mtvLM3PidjkoSiiau1ktB_l6_Ltky3n6kie6e2XszxsBqmwqmChdOl5GhoYPtAWHOqzIxv1gg-k0lDRBG6qHugPRW8PzEUNL2XDYrXaFZaMDTUoySDvg9E2gNowmM4RhyaNI1HhtGvJgt7E_lUaTEMx9ZSC9taLP6V80jUZoeDCOXJS2zobDoMo0fLALcacWZxT2F4oPUfE9TmZF9dLdZAE3CQrhNXA3V4hK7bah3CMIEAkkddD86KbBSWZL0LDeGIkO-ooPIP251ZF2Wh0hPdUfG7hcZnNMS1hC-rdeaqvg8bhycBn3JU7W86FvZYthRuHwwhL4gnEHpAfRH6axcNMhapWeE_ZcrnqMc783i9k9ELf_fRH60BJ92oqCOjgSkvkg4pxTUmKfc1fcNwlU_GOzF-XbcbE5Jn8blhXRdCeTXjX1skgKhOK7IbfDFp-1taKhxyXW9vimIDM7zrEf6ObGlnhHy-mHYUFh6eO7SYu4ChJiDP7AcMRxW3Uow-5wNCPdwIsGVWVJQzziJA-CTUzkomC_X5qBRaNVjUs5PvwpGObRm5yZYF6EPNxRdVTFdVsVh1HU4WVskQVJsUqNkSISYR76xZ-iyBnL5wd-W32TdbX7XYyde_mTA-3a0ruFA8NllUXDXQb0SKVk4W0hqiIxA2DPtd0Dj74eRYTNlTeAz6-R3hS_OGtDWqSPmiysy6rmzbEDJjOmzjQLS0pPywEl6V06tghVeyQlZZI3Y2psjgCJHH5SM8exCb9CBTriMDEqJT3N9EjIJGwl0qk_fdF-qHFEUqEHb5_Mtk7j0v4BmbUV5Ja0_E8G7Iycim-pCW29MRlBoxUpUpHV4agnrTHIp12mXUovqxaZgpp0kVqkqCbwi-aAQ6ZcI1MCsX1lkUaZYKB9EnCHFOEEiwRzE1a79uRfYdvxCE0QQ0mwa-pKVrMP2B6Vjmcx1nbHWjc4MB2Hyi-sf_Fhu9jFkeQdh-DNG4CPxXcqH0_BJDOdIZYGWEHR9zh8dR3RoDSaFKj8f04eWryp2kGyvm1yjEykKHsInwg65ZCcBaTbenJZTDfg4_u-HOXD13ZAdHeaaIjZuL8C87lDU0uukfgaCP3V_qZFvCTBTIqdNRMoE0m8KmHohiq35mBdjPI0ayReiKBy8kZmVy0]--></g></svg>